<svg xmlns="http://www.w3.org/2000/svg" height="24px" viewBox="0 -960 960 960" width="24px" fill="#1f1f1f"><path d="M480-514Zm-67 410q-112-53-182.5-166T160-516v-244l320-120 320 120v184q-19-8-39-13t-41-8v-108l-240-90-240 90v189q0 83 33 157t90 126q5 35 18 67.5t32 61.5Zm267 64q-100 0-170-70t-70-170q0-100 70-170t170-70q100 0 170 70t70 170q0 23-4 44t-12 41q-2-3-4.5-6t-5.5-6l-55-56q1-5 1-8.5v-8.5q0-66-47-113t-113-47q-66 0-113 47t-47 113q0 66 47 113t113 47h8.5q3.5 0 8.5-1l56 55 6 6q3 3 6 5-20 8-41 11.5T680-40Zm172-68q-12 12-28.5 12T795-108l-94-95q-3 1-21 3-33 0-56.5-23.5T600-280q0-33 23.5-56.5T680-360q33 0 56.5 23.5T760-280q0 3-3 21l95 95q12 12 12 28t-12 28Z"/></svg>